<svg width="34" height="38" viewBox="0 0 34 38" fill="none" xmlns="http://www.w3.org/2000/svg">
<path d="M19.8833 34C19.5903 34.5051 19.1697 34.9244 18.6637 35.2159C18.1577 35.5073 17.584 35.6608 17 35.6608C16.416 35.6608 15.8423 35.5073 15.3363 35.2159C14.8303 34.9244 14.4097 34.5051 14.1167 34M27 12.3333C27 9.68117 25.9464 7.13763 24.0711 5.26227C22.1957 3.3869 19.6522 2.33333 17 2.33333C14.3478 2.33333 11.8043 3.3869 9.92893 5.26227C8.05357 7.13763 7 9.68117 7 12.3333C7 24 2 27.3333 2 27.3333H32C32 27.3333 27 24 27 12.3333Z" stroke="#1E1E1E" stroke-width="3.5" stroke-linecap="round" stroke-linejoin="round"/>
</svg>
