<svg width="14" height="16" viewBox="0 0 14 16" fill="none" xmlns="http://www.w3.org/2000/svg">
<path d="M8.15333 14C8.03613 14.2021 7.8679 14.3698 7.66548 14.4864C7.46307 14.6029 7.23359 14.6643 7 14.6643C6.76641 14.6643 6.53693 14.6029 6.33452 14.4864C6.1321 14.3698 5.96387 14.2021 5.84667 14M11 5.33333C11 4.27247 10.5786 3.25505 9.82843 2.50491C9.07828 1.75476 8.06087 1.33333 7 1.33333C5.93913 1.33333 4.92172 1.75476 4.17157 2.50491C3.42143 3.25505 3 4.27247 3 5.33333C3 10 1 11.3333 1 11.3333H13C13 11.3333 11 10 11 5.33333Z" stroke="#1E1E1E" stroke-width="1.6" stroke-linecap="round" stroke-linejoin="round"/>
</svg>
