<svg width="28" height="30" viewBox="0 0 28 30" fill="none" xmlns="http://www.w3.org/2000/svg">
<path d="M16.3067 27C16.0723 27.4041 15.7358 27.7395 15.331 27.9727C14.9261 28.2059 14.4672 28.3286 14 28.3286C13.5328 28.3286 13.0739 28.2059 12.669 27.9727C12.2642 27.7395 11.9277 27.4041 11.6933 27M22 9.66667C22 7.54493 21.1571 5.5101 19.6569 4.00981C18.1566 2.50952 16.1217 1.66667 14 1.66667C11.8783 1.66667 9.84344 2.50952 8.34315 4.00981C6.84285 5.5101 6 7.54493 6 9.66667C6 19 2 21.6667 2 21.6667H26C26 21.6667 22 19 22 9.66667Z" stroke="#1E1E1E" stroke-width="3" stroke-linecap="round" stroke-linejoin="round"/>
</svg>
