<svg width="28" height="26" viewBox="0 0 28 26" fill="none" xmlns="http://www.w3.org/2000/svg">
<path d="M7.6 23.725L8.9625 24.5125C9.95 25.1 11.225 24.75 11.8125 23.7625L11.95 23.525C13.075 21.5625 14.925 21.5625 16.0625 23.525L16.2 23.7625C16.7875 24.75 18.0625 25.1 19.05 24.5125L21.2125 23.275C22.35 22.625 22.7375 21.1625 22.0875 20.0375C20.95 18.075 21.875 16.475 24.1375 16.475C25.4375 16.475 26.5125 15.4125 26.5125 14.1V11.9C26.5125 10.6 25.45 9.525 24.1375 9.525C22.875 9.525 22.025 9.025 21.725 8.2375C21.4875 7.625 21.5875 6.825 22.0875 5.9625C22.7375 4.825 22.35 3.375 21.2125 2.725L20.2 2.15M16.05 2.47625C14.925 4.43875 13.075 4.43875 11.9375 2.47625L11.8 2.23875C11.6636 2.00254 11.4818 1.79565 11.265 1.62999C11.0483 1.46432 10.801 1.34315 10.5373 1.27344C10.2736 1.20373 9.99865 1.18687 9.72839 1.22382C9.45812 1.26077 9.19783 1.35081 8.9625 1.48875L6.8 2.72625C5.6625 3.37625 5.275 4.83875 5.925 5.97625C7.0625 7.92625 6.1375 9.52625 3.875 9.52625C2.575 9.52625 1.5 10.5888 1.5 11.9013V14.1013C1.5 15.4013 2.5625 16.4763 3.875 16.4763C6.1375 16.4763 7.0625 18.0763 5.925 20.0388" stroke="white" stroke-width="1.5" stroke-miterlimit="10" stroke-linecap="round" stroke-linejoin="round"/>
</svg>
