<svg width="27" height="22" viewBox="0 0 27 22" fill="none" xmlns="http://www.w3.org/2000/svg">
<path d="M13.3513 1.71375C13.7109 1.57823 14.098 1.53201 14.4794 1.57904C14.8608 1.62606 15.2251 1.76494 15.541 1.98375C15.8569 2.20256 16.115 2.49476 16.2932 2.83528C16.4713 3.1758 16.5642 3.55445 16.5637 3.93875V8.68875M1.125 14.515V8.8025C1.125 7.315 2.0375 5.99 3.425 5.465L8.3875 3.59M6.75 14H15.5M26.1988 16.4625V19.0375C26.1988 19.725 25.6488 20.2875 24.9488 20.3125H22.4988C21.1488 20.3125 19.9112 19.325 19.7987 17.975C19.7237 17.1875 20.0237 16.45 20.5487 15.9375C21.0112 15.4625 21.6488 15.1875 22.3488 15.1875H24.9488C25.6488 15.2125 26.1988 15.775 26.1988 16.4625V16.4625Z" stroke="white" stroke-width="1.5" stroke-linecap="round" stroke-linejoin="round"/>
</svg>
