<svg width="28" height="22" viewBox="0 0 28 22" fill="none" xmlns="http://www.w3.org/2000/svg">
<path d="M26.5 8.5V7.25C26.5 2.25 25.25 1 20.25 1H7.75C2.75 1 1.5 2.25 1.5 7.25V7.875C2.3288 7.875 3.12366 8.20424 3.70971 8.79029C4.29576 9.37634 4.625 10.1712 4.625 11C4.625 11.8288 4.29576 12.6237 3.70971 13.2097C3.12366 13.7958 2.3288 14.125 1.5 14.125V14.75C1.5 19.75 2.75 21 7.75 21H20.25C25.25 21 26.5 19.75 26.5 14.75C25.6712 14.75 24.8763 14.4208 24.2903 13.8347C23.7042 13.2487 23.375 12.4538 23.375 11.625" stroke="#0E0E0E" stroke-width="1.5" stroke-linecap="round" stroke-linejoin="round"/>
</svg>
